<mxfile host="app.diagrams.net" modified="2020-05-09T06:36:36.568Z" agent="5.0 (Windows NT 6.1; Win64; x64) AppleWebKit/537.36 (KHTML, like Gecko) Chrome/81.0.4044.138 Safari/537.36" etag="2koMFH2D1YuDCX4jRK1x" version="13.0.9" type="github">
  <diagram id="swLJGi5v2HPjv_KgUqqM" name="第 1 页">
    <mxGraphModel dx="886" dy="500" grid="1" gridSize="10" guides="1" tooltips="1" connect="1" arrows="1" fold="1" page="1" pageScale="1" pageWidth="1169" pageHeight="827" math="0" shadow="0">
      <root>
        <mxCell id="0" />
        <mxCell id="1" parent="0" />
        <mxCell id="vAtyXtitnbN9AJRjqvqJ-345" value="" style="rounded=0;whiteSpace=wrap;html=1;shadow=0;fillColor=#60a917;strokeColor=none;fontColor=#ffffff;" parent="1" vertex="1">
          <mxGeometry x="1550" y="570" width="220" height="140" as="geometry" />
        </mxCell>
        <mxCell id="vAtyXtitnbN9AJRjqvqJ-344" value="" style="rounded=0;whiteSpace=wrap;html=1;strokeColor=none;strokeWidth=1;fillColor=#e1d5e7;align=left;noLabel=1;dashed=1;" parent="1" vertex="1">
          <mxGeometry x="820" y="1207" width="290" height="64" as="geometry" />
        </mxCell>
        <mxCell id="vAtyXtitnbN9AJRjqvqJ-342" value="" style="rounded=0;whiteSpace=wrap;html=1;strokeColor=none;strokeWidth=1;fillColor=#eeeeee;align=left;noLabel=1;dashed=1;" parent="1" vertex="1">
          <mxGeometry x="820" y="968" width="180" height="60" as="geometry" />
        </mxCell>
        <mxCell id="vAtyXtitnbN9AJRjqvqJ-341" value="" style="rounded=0;whiteSpace=wrap;html=1;strokeColor=none;strokeWidth=1;fillColor=#eeeeee;align=left;noLabel=1;dashed=1;" parent="1" vertex="1">
          <mxGeometry x="820" y="810" width="180" height="60" as="geometry" />
        </mxCell>
        <mxCell id="vAtyXtitnbN9AJRjqvqJ-336" value="" style="rounded=0;whiteSpace=wrap;html=1;strokeColor=none;strokeWidth=1;fillColor=#e1d5e7;align=left;noLabel=1;dashed=1;" parent="1" vertex="1">
          <mxGeometry x="1030" y="1330" width="740" height="60" as="geometry" />
        </mxCell>
        <mxCell id="vAtyXtitnbN9AJRjqvqJ-335" value="" style="rounded=0;whiteSpace=wrap;html=1;strokeColor=none;strokeWidth=1;fillColor=#eeeeee;align=left;noLabel=1;dashed=1;" parent="1" vertex="1">
          <mxGeometry x="930" y="810" width="180" height="140" as="geometry" />
        </mxCell>
        <mxCell id="vAtyXtitnbN9AJRjqvqJ-334" value="" style="rounded=0;whiteSpace=wrap;html=1;strokeColor=#36393d;strokeWidth=1;fillColor=#cdeb8b;align=left;noLabel=1;dashed=1;" parent="1" vertex="1">
          <mxGeometry x="1560" y="968" width="200" height="72" as="geometry" />
        </mxCell>
        <mxCell id="vAtyXtitnbN9AJRjqvqJ-220" value="" style="rounded=0;whiteSpace=wrap;html=1;dashed=1;strokeColor=none;strokeWidth=1;fillColor=#1ba1e2;align=left;fontColor=#ffffff;" parent="1" vertex="1">
          <mxGeometry x="710" y="320" width="630" height="310" as="geometry" />
        </mxCell>
        <mxCell id="vAtyXtitnbN9AJRjqvqJ-144" style="edgeStyle=orthogonalEdgeStyle;rounded=0;orthogonalLoop=1;jettySize=auto;html=1;exitX=0.5;exitY=1;exitDx=0;exitDy=0;entryX=0;entryY=0.5;entryDx=0;entryDy=0;fillColor=#d5e8d4;strokeColor=#82b366;" parent="1" source="vAtyXtitnbN9AJRjqvqJ-2" target="vAtyXtitnbN9AJRjqvqJ-114" edge="1">
          <mxGeometry relative="1" as="geometry" />
        </mxCell>
        <mxCell id="vAtyXtitnbN9AJRjqvqJ-288" style="edgeStyle=orthogonalEdgeStyle;rounded=0;orthogonalLoop=1;jettySize=auto;html=1;exitX=0.5;exitY=1;exitDx=0;exitDy=0;entryX=0.5;entryY=0;entryDx=0;entryDy=0;strokeColor=#82b366;fontColor=#EA6B66;fillColor=#d5e8d4;" parent="1" source="vAtyXtitnbN9AJRjqvqJ-2" target="vAtyXtitnbN9AJRjqvqJ-287" edge="1">
          <mxGeometry relative="1" as="geometry" />
        </mxCell>
        <mxCell id="vAtyXtitnbN9AJRjqvqJ-2" value="TPS54560B稳压芯片&lt;br&gt;-&amp;gt;稳压24V" style="rounded=0;whiteSpace=wrap;html=1;shadow=0;fillColor=#d5e8d4;strokeColor=none;" parent="1" vertex="1">
          <mxGeometry x="540" y="660" width="160" height="40" as="geometry" />
        </mxCell>
        <mxCell id="vAtyXtitnbN9AJRjqvqJ-179" style="edgeStyle=orthogonalEdgeStyle;rounded=0;orthogonalLoop=1;jettySize=auto;html=1;entryX=1;entryY=0.5;entryDx=0;entryDy=0;" parent="1" source="vAtyXtitnbN9AJRjqvqJ-3" target="vAtyXtitnbN9AJRjqvqJ-168" edge="1">
          <mxGeometry relative="1" as="geometry">
            <Array as="points">
              <mxPoint x="1320" y="441" />
            </Array>
          </mxGeometry>
        </mxCell>
        <mxCell id="vAtyXtitnbN9AJRjqvqJ-180" style="edgeStyle=orthogonalEdgeStyle;rounded=0;orthogonalLoop=1;jettySize=auto;html=1;exitX=0.439;exitY=0.001;exitDx=0;exitDy=0;entryX=1;entryY=0.5;entryDx=0;entryDy=0;exitPerimeter=0;" parent="1" source="vAtyXtitnbN9AJRjqvqJ-3" target="vAtyXtitnbN9AJRjqvqJ-167" edge="1">
          <mxGeometry relative="1" as="geometry">
            <Array as="points">
              <mxPoint x="1320" y="580" />
              <mxPoint x="1320" y="360" />
            </Array>
          </mxGeometry>
        </mxCell>
        <mxCell id="vAtyXtitnbN9AJRjqvqJ-227" value="2x3 IO OUTPUT" style="text;resizable=0;points=[];align=center;verticalAlign=middle;labelBackgroundColor=none;fontColor=#EA6B66;html=1;" parent="vAtyXtitnbN9AJRjqvqJ-180" vertex="1" connectable="0">
          <mxGeometry x="-0.546" y="63" relative="1" as="geometry">
            <mxPoint x="22.5" y="-30" as="offset" />
          </mxGeometry>
        </mxCell>
        <mxCell id="vAtyXtitnbN9AJRjqvqJ-243" style="edgeStyle=orthogonalEdgeStyle;rounded=0;orthogonalLoop=1;jettySize=auto;html=1;exitX=0.75;exitY=0;exitDx=0;exitDy=0;entryX=1;entryY=0.25;entryDx=0;entryDy=0;strokeColor=#b85450;fontColor=#EA6B66;fillColor=#f8cecc;" parent="1" source="vAtyXtitnbN9AJRjqvqJ-3" target="vAtyXtitnbN9AJRjqvqJ-122" edge="1">
          <mxGeometry relative="1" as="geometry">
            <Array as="points">
              <mxPoint x="1420" y="410" />
              <mxPoint x="920" y="410" />
              <mxPoint x="920" y="431" />
            </Array>
          </mxGeometry>
        </mxCell>
        <mxCell id="vAtyXtitnbN9AJRjqvqJ-244" style="edgeStyle=orthogonalEdgeStyle;rounded=0;orthogonalLoop=1;jettySize=auto;html=1;exitX=0.75;exitY=0;exitDx=0;exitDy=0;entryX=1;entryY=0.25;entryDx=0;entryDy=0;strokeColor=#b85450;fontColor=#EA6B66;fillColor=#f8cecc;" parent="1" source="vAtyXtitnbN9AJRjqvqJ-3" target="vAtyXtitnbN9AJRjqvqJ-123" edge="1">
          <mxGeometry relative="1" as="geometry">
            <Array as="points">
              <mxPoint x="1420" y="330" />
              <mxPoint x="920" y="330" />
              <mxPoint x="920" y="350" />
            </Array>
          </mxGeometry>
        </mxCell>
        <mxCell id="vAtyXtitnbN9AJRjqvqJ-245" value="1x3 IO OUTPUT" style="text;html=1;resizable=0;points=[];align=center;verticalAlign=middle;labelBackgroundColor=none;fontColor=#EA6B66;" parent="vAtyXtitnbN9AJRjqvqJ-244" vertex="1" connectable="0">
          <mxGeometry x="-0.852" y="1" relative="1" as="geometry">
            <mxPoint x="-19" y="-26" as="offset" />
          </mxGeometry>
        </mxCell>
        <mxCell id="vAtyXtitnbN9AJRjqvqJ-294" style="edgeStyle=orthogonalEdgeStyle;rounded=0;orthogonalLoop=1;jettySize=auto;html=1;exitX=0.25;exitY=1;exitDx=0;exitDy=0;strokeColor=#000000;fontColor=#EA6B66;" parent="1" source="vAtyXtitnbN9AJRjqvqJ-3" target="vAtyXtitnbN9AJRjqvqJ-281" edge="1">
          <mxGeometry relative="1" as="geometry" />
        </mxCell>
        <mxCell id="vAtyXtitnbN9AJRjqvqJ-295" style="edgeStyle=orthogonalEdgeStyle;rounded=0;orthogonalLoop=1;jettySize=auto;html=1;exitX=0.437;exitY=1.002;exitDx=0;exitDy=0;entryX=0.5;entryY=0;entryDx=0;entryDy=0;strokeColor=#000000;fontColor=#EA6B66;exitPerimeter=0;" parent="1" source="vAtyXtitnbN9AJRjqvqJ-3" target="vAtyXtitnbN9AJRjqvqJ-282" edge="1">
          <mxGeometry relative="1" as="geometry">
            <Array as="points">
              <mxPoint x="1320" y="1300" />
              <mxPoint x="1345" y="1300" />
            </Array>
          </mxGeometry>
        </mxCell>
        <mxCell id="vAtyXtitnbN9AJRjqvqJ-296" style="edgeStyle=orthogonalEdgeStyle;rounded=0;orthogonalLoop=1;jettySize=auto;html=1;entryX=0.5;entryY=0;entryDx=0;entryDy=0;strokeColor=#000000;fontColor=#EA6B66;exitX=0.562;exitY=1.002;exitDx=0;exitDy=0;exitPerimeter=0;" parent="1" source="vAtyXtitnbN9AJRjqvqJ-3" target="vAtyXtitnbN9AJRjqvqJ-280" edge="1">
          <mxGeometry relative="1" as="geometry">
            <mxPoint x="1340" y="1260" as="sourcePoint" />
            <Array as="points">
              <mxPoint x="1360" y="1320" />
              <mxPoint x="1462" y="1320" />
            </Array>
          </mxGeometry>
        </mxCell>
        <mxCell id="vAtyXtitnbN9AJRjqvqJ-338" value="2 IO SWDIO" style="text;html=1;resizable=0;points=[];align=center;verticalAlign=middle;labelBackgroundColor=none;fontColor=#EA6B66;" parent="vAtyXtitnbN9AJRjqvqJ-296" vertex="1" connectable="0">
          <mxGeometry x="-0.6057" y="15" relative="1" as="geometry">
            <mxPoint x="3" y="6" as="offset" />
          </mxGeometry>
        </mxCell>
        <mxCell id="vAtyXtitnbN9AJRjqvqJ-346" style="edgeStyle=orthogonalEdgeStyle;rounded=0;orthogonalLoop=1;jettySize=auto;html=1;exitX=0.933;exitY=-0.002;exitDx=0;exitDy=0;entryX=0;entryY=0.5;entryDx=0;entryDy=0;strokeColor=#B85450;fontColor=#EA6B66;exitPerimeter=0;" parent="1" source="vAtyXtitnbN9AJRjqvqJ-3" target="vAtyXtitnbN9AJRjqvqJ-283" edge="1">
          <mxGeometry relative="1" as="geometry">
            <Array as="points">
              <mxPoint x="1478" y="600" />
            </Array>
          </mxGeometry>
        </mxCell>
        <mxCell id="vAtyXtitnbN9AJRjqvqJ-347" value="1 IO OUTPUT" style="text;html=1;resizable=0;points=[];align=center;verticalAlign=middle;labelBackgroundColor=none;fontColor=#EA6B66;" parent="vAtyXtitnbN9AJRjqvqJ-346" vertex="1" connectable="0">
          <mxGeometry x="-0.2527" y="-23" relative="1" as="geometry">
            <mxPoint x="31.5" y="-33" as="offset" />
          </mxGeometry>
        </mxCell>
        <mxCell id="NJfnRs9i10rJ8kWKy58w-4" style="edgeStyle=orthogonalEdgeStyle;rounded=0;orthogonalLoop=1;jettySize=auto;html=1;exitX=0.75;exitY=1;exitDx=0;exitDy=0;" parent="1" source="vAtyXtitnbN9AJRjqvqJ-3" target="NJfnRs9i10rJ8kWKy58w-3" edge="1">
          <mxGeometry relative="1" as="geometry">
            <Array as="points">
              <mxPoint x="1420" y="1310" />
              <mxPoint x="1582" y="1310" />
            </Array>
          </mxGeometry>
        </mxCell>
        <mxCell id="vAtyXtitnbN9AJRjqvqJ-3" value="STM32F429IGT6&lt;br&gt;系统主控单元" style="rounded=0;whiteSpace=wrap;html=1;shadow=0;fillColor=#ffcccc;strokeColor=none;" parent="1" vertex="1">
          <mxGeometry x="1180" y="650" width="320" height="610" as="geometry" />
        </mxCell>
        <mxCell id="vAtyXtitnbN9AJRjqvqJ-118" style="edgeStyle=orthogonalEdgeStyle;rounded=0;orthogonalLoop=1;jettySize=auto;html=1;exitX=1;exitY=0.25;exitDx=0;exitDy=0;entryX=0;entryY=0.5;entryDx=0;entryDy=0;fillColor=#e51400;strokeColor=#B20000;" parent="1" source="vAtyXtitnbN9AJRjqvqJ-112" target="vAtyXtitnbN9AJRjqvqJ-116" edge="1">
          <mxGeometry relative="1" as="geometry" />
        </mxCell>
        <mxCell id="vAtyXtitnbN9AJRjqvqJ-127" style="edgeStyle=orthogonalEdgeStyle;rounded=0;orthogonalLoop=1;jettySize=auto;html=1;exitX=1;exitY=0.75;exitDx=0;exitDy=0;entryX=0;entryY=0.5;entryDx=0;entryDy=0;fillColor=#d5e8d4;strokeColor=#82b366;" parent="1" source="vAtyXtitnbN9AJRjqvqJ-112" target="vAtyXtitnbN9AJRjqvqJ-2" edge="1">
          <mxGeometry relative="1" as="geometry" />
        </mxCell>
        <mxCell id="vAtyXtitnbN9AJRjqvqJ-112" value="机械开关、保护电路" style="rounded=0;whiteSpace=wrap;html=1;shadow=0;fillColor=#d5e8d4;strokeColor=none;" parent="1" vertex="1">
          <mxGeometry x="340" y="580" width="160" height="40" as="geometry" />
        </mxCell>
        <mxCell id="vAtyXtitnbN9AJRjqvqJ-298" style="edgeStyle=orthogonalEdgeStyle;rounded=0;orthogonalLoop=1;jettySize=auto;html=1;exitX=1;exitY=0.5;exitDx=0;exitDy=0;entryX=1;entryY=0.5;entryDx=0;entryDy=0;strokeColor=#9673a6;fontColor=#EA6B66;fillColor=#e1d5e7;" parent="1" source="vAtyXtitnbN9AJRjqvqJ-114" target="vAtyXtitnbN9AJRjqvqJ-254" edge="1">
          <mxGeometry relative="1" as="geometry">
            <Array as="points">
              <mxPoint x="910" y="920" />
              <mxPoint x="910" y="1400" />
              <mxPoint x="1780" y="1400" />
              <mxPoint x="1780" y="1000" />
            </Array>
          </mxGeometry>
        </mxCell>
        <mxCell id="vAtyXtitnbN9AJRjqvqJ-307" style="edgeStyle=orthogonalEdgeStyle;rounded=0;orthogonalLoop=1;jettySize=auto;html=1;exitX=0.75;exitY=0;exitDx=0;exitDy=0;entryX=0.435;entryY=1.061;entryDx=0;entryDy=0;entryPerimeter=0;strokeColor=#9673a6;fontColor=#EA6B66;fillColor=#e1d5e7;" parent="1" source="vAtyXtitnbN9AJRjqvqJ-114" target="vAtyXtitnbN9AJRjqvqJ-306" edge="1">
          <mxGeometry relative="1" as="geometry" />
        </mxCell>
        <mxCell id="vAtyXtitnbN9AJRjqvqJ-317" style="edgeStyle=orthogonalEdgeStyle;rounded=0;orthogonalLoop=1;jettySize=auto;html=1;exitX=0.437;exitY=1.015;exitDx=0;exitDy=0;entryX=0;entryY=0.5;entryDx=0;entryDy=0;strokeColor=#9673a6;fontColor=#EA6B66;exitPerimeter=0;fillColor=#e1d5e7;" parent="1" source="vAtyXtitnbN9AJRjqvqJ-114" target="vAtyXtitnbN9AJRjqvqJ-312" edge="1">
          <mxGeometry relative="1" as="geometry">
            <Array as="points">
              <mxPoint x="810" y="1000" />
            </Array>
          </mxGeometry>
        </mxCell>
        <mxCell id="vAtyXtitnbN9AJRjqvqJ-318" style="edgeStyle=orthogonalEdgeStyle;rounded=0;orthogonalLoop=1;jettySize=auto;html=1;exitX=0.437;exitY=1.003;exitDx=0;exitDy=0;entryX=0;entryY=0.5;entryDx=0;entryDy=0;strokeColor=#9673a6;fontColor=#EA6B66;exitPerimeter=0;fillColor=#e1d5e7;" parent="1" source="vAtyXtitnbN9AJRjqvqJ-114" target="vAtyXtitnbN9AJRjqvqJ-303" edge="1">
          <mxGeometry relative="1" as="geometry">
            <Array as="points">
              <mxPoint x="810" y="1240" />
            </Array>
          </mxGeometry>
        </mxCell>
        <mxCell id="vAtyXtitnbN9AJRjqvqJ-114" value="TPS5430稳压芯片&lt;br&gt;-&amp;gt;稳压5V" style="rounded=0;whiteSpace=wrap;html=1;shadow=0;fillColor=#d5e8d4;strokeColor=none;" parent="1" vertex="1">
          <mxGeometry x="740" y="900" width="160" height="40" as="geometry" />
        </mxCell>
        <mxCell id="vAtyXtitnbN9AJRjqvqJ-124" value="" style="edgeStyle=orthogonalEdgeStyle;rounded=0;orthogonalLoop=1;jettySize=auto;html=1;fillColor=#e51400;strokeColor=#B20000;" parent="1" source="vAtyXtitnbN9AJRjqvqJ-116" target="vAtyXtitnbN9AJRjqvqJ-122" edge="1">
          <mxGeometry relative="1" as="geometry" />
        </mxCell>
        <mxCell id="vAtyXtitnbN9AJRjqvqJ-125" style="edgeStyle=orthogonalEdgeStyle;rounded=0;orthogonalLoop=1;jettySize=auto;html=1;exitX=1;exitY=0.25;exitDx=0;exitDy=0;entryX=0;entryY=0.5;entryDx=0;entryDy=0;fillColor=#e51400;strokeColor=#B20000;" parent="1" source="vAtyXtitnbN9AJRjqvqJ-116" target="vAtyXtitnbN9AJRjqvqJ-123" edge="1">
          <mxGeometry relative="1" as="geometry" />
        </mxCell>
        <mxCell id="vAtyXtitnbN9AJRjqvqJ-116" value="电机供电部分滤波电路48V&lt;br&gt;泄放电路" style="rounded=0;whiteSpace=wrap;html=1;shadow=0;fillColor=#d5e8d4;strokeColor=none;" parent="1" vertex="1">
          <mxGeometry x="540" y="400" width="160" height="81" as="geometry" />
        </mxCell>
        <mxCell id="vAtyXtitnbN9AJRjqvqJ-171" value="" style="edgeStyle=orthogonalEdgeStyle;rounded=0;orthogonalLoop=1;jettySize=auto;html=1;fillColor=#e51400;strokeColor=#B20000;" parent="1" source="vAtyXtitnbN9AJRjqvqJ-122" target="vAtyXtitnbN9AJRjqvqJ-151" edge="1">
          <mxGeometry relative="1" as="geometry" />
        </mxCell>
        <mxCell id="vAtyXtitnbN9AJRjqvqJ-122" value="左右方向电机电源开关48V" style="rounded=0;whiteSpace=wrap;html=1;shadow=0;fillColor=#d5e8d4;strokeColor=none;" parent="1" vertex="1">
          <mxGeometry x="740" y="420.5" width="160" height="40" as="geometry" />
        </mxCell>
        <mxCell id="vAtyXtitnbN9AJRjqvqJ-170" value="" style="edgeStyle=orthogonalEdgeStyle;rounded=0;orthogonalLoop=1;jettySize=auto;html=1;fillColor=#e51400;strokeColor=#B20000;" parent="1" source="vAtyXtitnbN9AJRjqvqJ-123" target="vAtyXtitnbN9AJRjqvqJ-150" edge="1">
          <mxGeometry relative="1" as="geometry" />
        </mxCell>
        <mxCell id="vAtyXtitnbN9AJRjqvqJ-123" value="前后方向电机电源开关48V" style="rounded=0;whiteSpace=wrap;html=1;shadow=0;fillColor=#d5e8d4;strokeColor=none;" parent="1" vertex="1">
          <mxGeometry x="740" y="340" width="160" height="40" as="geometry" />
        </mxCell>
        <mxCell id="vAtyXtitnbN9AJRjqvqJ-226" style="edgeStyle=orthogonalEdgeStyle;rounded=0;orthogonalLoop=1;jettySize=auto;html=1;entryX=0.5;entryY=1;entryDx=0;entryDy=0;strokeColor=#9673a6;fontColor=none;fillColor=#e1d5e7;" parent="1" target="vAtyXtitnbN9AJRjqvqJ-225" edge="1">
          <mxGeometry relative="1" as="geometry">
            <mxPoint x="790" y="940" as="sourcePoint" />
            <Array as="points">
              <mxPoint x="790" y="940" />
              <mxPoint x="790" y="1420" />
              <mxPoint x="1960" y="1420" />
            </Array>
          </mxGeometry>
        </mxCell>
        <mxCell id="vAtyXtitnbN9AJRjqvqJ-340" value="3.3V主控供电" style="text;html=1;resizable=0;points=[];align=center;verticalAlign=middle;labelBackgroundColor=#ffffff;fontColor=#EA6B66;" parent="vAtyXtitnbN9AJRjqvqJ-226" vertex="1" connectable="0">
          <mxGeometry x="-0.3148" y="-2" relative="1" as="geometry">
            <mxPoint x="-36.5" y="-2" as="offset" />
          </mxGeometry>
        </mxCell>
        <mxCell id="vAtyXtitnbN9AJRjqvqJ-259" style="edgeStyle=orthogonalEdgeStyle;rounded=0;orthogonalLoop=1;jettySize=auto;html=1;exitX=1;exitY=0.5;exitDx=0;exitDy=0;entryX=0;entryY=0.5;entryDx=0;entryDy=0;strokeColor=#9673a6;fontColor=#EA6B66;fillColor=#e1d5e7;" parent="1" target="vAtyXtitnbN9AJRjqvqJ-247" edge="1">
          <mxGeometry relative="1" as="geometry">
            <mxPoint x="899.666666666667" y="920" as="sourcePoint" />
            <Array as="points">
              <mxPoint x="910" y="920" />
              <mxPoint x="910" y="1160" />
            </Array>
          </mxGeometry>
        </mxCell>
        <mxCell id="vAtyXtitnbN9AJRjqvqJ-150" value="电机驱动器1" style="rounded=0;whiteSpace=wrap;html=1;shadow=0;fillColor=#fff2cc;strokeColor=none;" parent="1" vertex="1">
          <mxGeometry x="940" y="339.9999999999999" width="160" height="40" as="geometry" />
        </mxCell>
        <mxCell id="vAtyXtitnbN9AJRjqvqJ-151" value="电机驱动器2" style="rounded=0;whiteSpace=wrap;html=1;shadow=0;fillColor=#fff2cc;strokeColor=none;" parent="1" vertex="1">
          <mxGeometry x="940" y="420.5" width="160" height="40" as="geometry" />
        </mxCell>
        <mxCell id="vAtyXtitnbN9AJRjqvqJ-157" value="光栅检测点1" style="rounded=0;whiteSpace=wrap;html=1;shadow=0;fillColor=#ffcc99;strokeColor=none;" parent="1" vertex="1">
          <mxGeometry x="940" y="820" width="160" height="40" as="geometry" />
        </mxCell>
        <mxCell id="vAtyXtitnbN9AJRjqvqJ-158" value="&lt;span style=&quot;white-space: normal&quot;&gt;备用光栅检测点1&lt;/span&gt;" style="rounded=0;whiteSpace=wrap;html=1;shadow=0;fillColor=#ffcc99;strokeColor=none;" parent="1" vertex="1">
          <mxGeometry x="940" y="900" width="160" height="40" as="geometry" />
        </mxCell>
        <mxCell id="vAtyXtitnbN9AJRjqvqJ-174" value="" style="edgeStyle=orthogonalEdgeStyle;rounded=0;orthogonalLoop=1;jettySize=auto;html=1;" parent="1" source="vAtyXtitnbN9AJRjqvqJ-167" target="vAtyXtitnbN9AJRjqvqJ-150" edge="1">
          <mxGeometry relative="1" as="geometry" />
        </mxCell>
        <mxCell id="vAtyXtitnbN9AJRjqvqJ-167" value="光栅隔离电路" style="rounded=0;whiteSpace=wrap;html=1;shadow=0;fillColor=#fff2cc;strokeColor=none;" parent="1" vertex="1">
          <mxGeometry x="1140" y="340" width="160" height="40" as="geometry" />
        </mxCell>
        <mxCell id="vAtyXtitnbN9AJRjqvqJ-175" value="" style="edgeStyle=orthogonalEdgeStyle;rounded=0;orthogonalLoop=1;jettySize=auto;html=1;" parent="1" source="vAtyXtitnbN9AJRjqvqJ-168" target="vAtyXtitnbN9AJRjqvqJ-151" edge="1">
          <mxGeometry relative="1" as="geometry" />
        </mxCell>
        <mxCell id="vAtyXtitnbN9AJRjqvqJ-168" value="光栅隔离电路" style="rounded=0;whiteSpace=wrap;html=1;shadow=0;fillColor=#fff2cc;strokeColor=none;" parent="1" vertex="1">
          <mxGeometry x="1140" y="420.5" width="160" height="40" as="geometry" />
        </mxCell>
        <mxCell id="vAtyXtitnbN9AJRjqvqJ-188" style="edgeStyle=orthogonalEdgeStyle;rounded=0;orthogonalLoop=1;jettySize=auto;html=1;exitX=0;exitY=0.313;exitDx=0;exitDy=0;entryX=1;entryY=0.5;entryDx=0;entryDy=0;exitPerimeter=0;" parent="1" edge="1">
          <mxGeometry relative="1" as="geometry">
            <mxPoint x="1100" y="840" as="sourcePoint" />
            <mxPoint x="1180" y="840" as="targetPoint" />
          </mxGeometry>
        </mxCell>
        <mxCell id="vAtyXtitnbN9AJRjqvqJ-232" value="1 IO INPUT" style="text;html=1;resizable=0;points=[];align=center;verticalAlign=middle;labelBackgroundColor=none;fontColor=#EA6B66;" parent="vAtyXtitnbN9AJRjqvqJ-188" vertex="1" connectable="0">
          <mxGeometry x="-0.34" y="1" relative="1" as="geometry">
            <mxPoint x="13.793103448275986" y="-9" as="offset" />
          </mxGeometry>
        </mxCell>
        <mxCell id="vAtyXtitnbN9AJRjqvqJ-193" style="edgeStyle=orthogonalEdgeStyle;rounded=0;orthogonalLoop=1;jettySize=auto;html=1;exitX=0;exitY=0.313;exitDx=0;exitDy=0;entryX=1;entryY=0.5;entryDx=0;entryDy=0;exitPerimeter=0;" parent="1" edge="1">
          <mxGeometry relative="1" as="geometry">
            <mxPoint x="1100" y="919.5" as="sourcePoint" />
            <mxPoint x="1180" y="919.5" as="targetPoint" />
          </mxGeometry>
        </mxCell>
        <mxCell id="vAtyXtitnbN9AJRjqvqJ-233" value="1 IO INPUT" style="text;html=1;resizable=0;points=[];align=center;verticalAlign=middle;labelBackgroundColor=none;fontColor=#EA6B66;" parent="vAtyXtitnbN9AJRjqvqJ-193" vertex="1" connectable="0">
          <mxGeometry x="-0.11" y="2" relative="1" as="geometry">
            <mxPoint x="4.13793103448301" y="-7.5" as="offset" />
          </mxGeometry>
        </mxCell>
        <mxCell id="vAtyXtitnbN9AJRjqvqJ-223" style="edgeStyle=orthogonalEdgeStyle;rounded=0;orthogonalLoop=1;jettySize=auto;html=1;entryX=0;entryY=0.109;entryDx=0;entryDy=0;entryPerimeter=0;dashed=1;strokeColor=#FF0000;fontColor=none;exitX=1.012;exitY=0.464;exitDx=0;exitDy=0;exitPerimeter=0;" parent="1" source="vAtyXtitnbN9AJRjqvqJ-221" target="vAtyXtitnbN9AJRjqvqJ-220" edge="1">
          <mxGeometry relative="1" as="geometry">
            <Array as="points">
              <mxPoint x="685" y="354" />
            </Array>
          </mxGeometry>
        </mxCell>
        <mxCell id="vAtyXtitnbN9AJRjqvqJ-221" value="驱动电机控制及检测部分" style="text;html=1;" parent="1" vertex="1">
          <mxGeometry x="530" y="340" width="130" height="30" as="geometry" />
        </mxCell>
        <mxCell id="vAtyXtitnbN9AJRjqvqJ-330" style="edgeStyle=orthogonalEdgeStyle;rounded=0;orthogonalLoop=1;jettySize=auto;html=1;exitX=0;exitY=0.5;exitDx=0;exitDy=0;entryX=0.873;entryY=0.001;entryDx=0;entryDy=0;entryPerimeter=0;strokeColor=#B85450;fontColor=#EA6B66;" parent="1" source="vAtyXtitnbN9AJRjqvqJ-225" target="vAtyXtitnbN9AJRjqvqJ-3" edge="1">
          <mxGeometry relative="1" as="geometry" />
        </mxCell>
        <mxCell id="vAtyXtitnbN9AJRjqvqJ-333" value="主板提供3.3V电源" style="text;html=1;resizable=0;points=[];align=center;verticalAlign=middle;labelBackgroundColor=none;fontColor=#EA6B66;" parent="vAtyXtitnbN9AJRjqvqJ-330" vertex="1" connectable="0">
          <mxGeometry x="-0.781" y="-1" relative="1" as="geometry">
            <mxPoint x="10.5" y="-9.5" as="offset" />
          </mxGeometry>
        </mxCell>
        <mxCell id="vAtyXtitnbN9AJRjqvqJ-331" style="edgeStyle=orthogonalEdgeStyle;rounded=0;orthogonalLoop=1;jettySize=auto;html=1;exitX=0;exitY=0.5;exitDx=0;exitDy=0;entryX=1;entryY=0.5;entryDx=0;entryDy=0;strokeColor=#B85450;fontColor=#EA6B66;" parent="1" source="vAtyXtitnbN9AJRjqvqJ-225" target="vAtyXtitnbN9AJRjqvqJ-253" edge="1">
          <mxGeometry relative="1" as="geometry">
            <Array as="points">
              <mxPoint x="1860" y="520" />
              <mxPoint x="1860" y="680" />
            </Array>
          </mxGeometry>
        </mxCell>
        <mxCell id="vAtyXtitnbN9AJRjqvqJ-332" style="edgeStyle=orthogonalEdgeStyle;rounded=0;orthogonalLoop=1;jettySize=auto;html=1;exitX=0;exitY=0.5;exitDx=0;exitDy=0;entryX=1;entryY=0.75;entryDx=0;entryDy=0;strokeColor=#B85450;fontColor=#EA6B66;" parent="1" source="vAtyXtitnbN9AJRjqvqJ-225" target="vAtyXtitnbN9AJRjqvqJ-274" edge="1">
          <mxGeometry relative="1" as="geometry">
            <Array as="points">
              <mxPoint x="1860" y="520" />
              <mxPoint x="1860" y="850" />
            </Array>
          </mxGeometry>
        </mxCell>
        <mxCell id="vAtyXtitnbN9AJRjqvqJ-225" value="稳压输出3.3V" style="rounded=0;whiteSpace=wrap;html=1;shadow=0;fillColor=#d5e8d4;strokeColor=none;" parent="1" vertex="1">
          <mxGeometry x="1900" y="500.5" width="120" height="40" as="geometry" />
        </mxCell>
        <mxCell id="vAtyXtitnbN9AJRjqvqJ-229" value="1x3 IO INPUT" style="text;resizable=0;points=[];align=center;verticalAlign=middle;labelBackgroundColor=none;fontColor=#EA6B66;html=1;" parent="1" vertex="1" connectable="0">
          <mxGeometry x="1259.9430585545388" y="590.1086026134208" as="geometry">
            <mxPoint x="12.5" y="-20" as="offset" />
          </mxGeometry>
        </mxCell>
        <mxCell id="vAtyXtitnbN9AJRjqvqJ-241" style="edgeStyle=orthogonalEdgeStyle;rounded=0;orthogonalLoop=1;jettySize=auto;html=1;entryX=0.5;entryY=0;entryDx=0;entryDy=0;strokeColor=#82b366;fontColor=#EA6B66;fillColor=#d5e8d4;" parent="1" source="vAtyXtitnbN9AJRjqvqJ-236" target="vAtyXtitnbN9AJRjqvqJ-112" edge="1">
          <mxGeometry relative="1" as="geometry" />
        </mxCell>
        <mxCell id="vAtyXtitnbN9AJRjqvqJ-236" value="48V 电池Battery" style="rounded=0;whiteSpace=wrap;html=1;shadow=0;fillColor=#d5e8d4;strokeColor=none;" parent="1" vertex="1">
          <mxGeometry x="340" y="500.5" width="160" height="40" as="geometry" />
        </mxCell>
        <mxCell id="vAtyXtitnbN9AJRjqvqJ-246" value="条码采集传感器" style="rounded=0;whiteSpace=wrap;html=1;shadow=0;fillColor=#ffcc99;strokeColor=none;" parent="1" vertex="1">
          <mxGeometry x="940" y="1220" width="160" height="40" as="geometry" />
        </mxCell>
        <mxCell id="vAtyXtitnbN9AJRjqvqJ-247" value="红外传感器检测包裹" style="rounded=0;whiteSpace=wrap;html=1;shadow=0;fillColor=#ffcc99;strokeColor=none;" parent="1" vertex="1">
          <mxGeometry x="940" y="1140" width="160" height="40" as="geometry" />
        </mxCell>
        <mxCell id="vAtyXtitnbN9AJRjqvqJ-249" style="edgeStyle=orthogonalEdgeStyle;rounded=0;orthogonalLoop=1;jettySize=auto;html=1;exitX=0;exitY=0.313;exitDx=0;exitDy=0;entryX=1;entryY=0.5;entryDx=0;entryDy=0;exitPerimeter=0;startArrow=classic;startFill=1;" parent="1" edge="1">
          <mxGeometry relative="1" as="geometry">
            <mxPoint x="1100" y="1240" as="sourcePoint" />
            <mxPoint x="1180" y="1240" as="targetPoint" />
          </mxGeometry>
        </mxCell>
        <mxCell id="vAtyXtitnbN9AJRjqvqJ-250" value="2 IO USART" style="text;html=1;resizable=0;points=[];align=center;verticalAlign=middle;labelBackgroundColor=none;fontColor=#EA6B66;" parent="vAtyXtitnbN9AJRjqvqJ-249" vertex="1" connectable="0">
          <mxGeometry x="-0.188" relative="1" as="geometry">
            <mxPoint x="7.586206896551722" y="-10" as="offset" />
          </mxGeometry>
        </mxCell>
        <mxCell id="vAtyXtitnbN9AJRjqvqJ-251" style="edgeStyle=orthogonalEdgeStyle;rounded=0;orthogonalLoop=1;jettySize=auto;html=1;exitX=0;exitY=0.313;exitDx=0;exitDy=0;entryX=1;entryY=0.5;entryDx=0;entryDy=0;exitPerimeter=0;" parent="1" edge="1">
          <mxGeometry relative="1" as="geometry">
            <mxPoint x="1100" y="1165" as="sourcePoint" />
            <mxPoint x="1180" y="1165" as="targetPoint" />
          </mxGeometry>
        </mxCell>
        <mxCell id="vAtyXtitnbN9AJRjqvqJ-252" value="1 IO Analog" style="text;html=1;resizable=0;points=[];align=center;verticalAlign=middle;labelBackgroundColor=none;fontColor=#EA6B66;" parent="vAtyXtitnbN9AJRjqvqJ-251" vertex="1" connectable="0">
          <mxGeometry x="-0.188" relative="1" as="geometry">
            <mxPoint x="7.586206896551722" y="-15" as="offset" />
          </mxGeometry>
        </mxCell>
        <mxCell id="vAtyXtitnbN9AJRjqvqJ-253" value="USART1 Wi-Fi通信模块" style="rounded=0;whiteSpace=wrap;html=1;shadow=0;fillColor=#ffcc99;strokeColor=none;" parent="1" vertex="1">
          <mxGeometry x="1580" y="660" width="160" height="40" as="geometry" />
        </mxCell>
        <mxCell id="vAtyXtitnbN9AJRjqvqJ-254" value="激光测距1" style="rounded=0;whiteSpace=wrap;html=1;shadow=0;fillColor=#ffcc99;strokeColor=none;" parent="1" vertex="1">
          <mxGeometry x="1580" y="980" width="160" height="40" as="geometry" />
        </mxCell>
        <mxCell id="vAtyXtitnbN9AJRjqvqJ-290" style="edgeStyle=orthogonalEdgeStyle;rounded=0;orthogonalLoop=1;jettySize=auto;html=1;exitX=1;exitY=0.75;exitDx=0;exitDy=0;strokeColor=#B85450;fontColor=#EA6B66;fillColor=#f8cecc;entryX=0.069;entryY=1.004;entryDx=0;entryDy=0;entryPerimeter=0;" parent="1" source="vAtyXtitnbN9AJRjqvqJ-261" target="vAtyXtitnbN9AJRjqvqJ-114" edge="1">
          <mxGeometry relative="1" as="geometry">
            <mxPoint x="770" y="940" as="targetPoint" />
            <Array as="points">
              <mxPoint x="1840" y="770" />
              <mxPoint x="1840" y="1480" />
              <mxPoint x="751" y="1480" />
            </Array>
          </mxGeometry>
        </mxCell>
        <mxCell id="vAtyXtitnbN9AJRjqvqJ-291" value="控制整体电源的通断" style="text;html=1;resizable=0;points=[];align=center;verticalAlign=middle;labelBackgroundColor=#ffffff;fontColor=#EA6B66;" parent="vAtyXtitnbN9AJRjqvqJ-290" vertex="1" connectable="0">
          <mxGeometry x="0.2216" y="2" relative="1" as="geometry">
            <mxPoint x="4" y="-2.5" as="offset" />
          </mxGeometry>
        </mxCell>
        <mxCell id="vAtyXtitnbN9AJRjqvqJ-261" value="低功耗无线通信" style="rounded=0;whiteSpace=wrap;html=1;shadow=0;fillColor=#ffcc99;strokeColor=none;" parent="1" vertex="1">
          <mxGeometry x="1580" y="740" width="160" height="40" as="geometry" />
        </mxCell>
        <mxCell id="vAtyXtitnbN9AJRjqvqJ-268" style="edgeStyle=orthogonalEdgeStyle;rounded=0;orthogonalLoop=1;jettySize=auto;html=1;exitX=0;exitY=0.313;exitDx=0;exitDy=0;entryX=1;entryY=0.5;entryDx=0;entryDy=0;exitPerimeter=0;" parent="1" edge="1">
          <mxGeometry relative="1" as="geometry">
            <mxPoint x="1580" y="1000" as="sourcePoint" />
            <mxPoint x="1500" y="1000" as="targetPoint" />
          </mxGeometry>
        </mxCell>
        <mxCell id="vAtyXtitnbN9AJRjqvqJ-269" value="2 IO USART" style="text;html=1;resizable=0;points=[];align=center;verticalAlign=middle;labelBackgroundColor=none;fontColor=#EA6B66;" parent="vAtyXtitnbN9AJRjqvqJ-268" vertex="1" connectable="0">
          <mxGeometry x="-0.188" relative="1" as="geometry">
            <mxPoint x="-2.5" y="-10" as="offset" />
          </mxGeometry>
        </mxCell>
        <mxCell id="vAtyXtitnbN9AJRjqvqJ-270" style="edgeStyle=orthogonalEdgeStyle;rounded=0;orthogonalLoop=1;jettySize=auto;html=1;exitX=0;exitY=0.313;exitDx=0;exitDy=0;entryX=1;entryY=0.5;entryDx=0;entryDy=0;exitPerimeter=0;" parent="1" edge="1">
          <mxGeometry relative="1" as="geometry">
            <mxPoint x="1580" y="679.5" as="sourcePoint" />
            <mxPoint x="1500" y="679.5" as="targetPoint" />
          </mxGeometry>
        </mxCell>
        <mxCell id="vAtyXtitnbN9AJRjqvqJ-271" value="2 IO USART" style="text;html=1;resizable=0;points=[];align=center;verticalAlign=middle;labelBackgroundColor=none;fontColor=#EA6B66;" parent="vAtyXtitnbN9AJRjqvqJ-270" vertex="1" connectable="0">
          <mxGeometry x="-0.188" relative="1" as="geometry">
            <mxPoint x="-2.5" y="-10" as="offset" />
          </mxGeometry>
        </mxCell>
        <mxCell id="vAtyXtitnbN9AJRjqvqJ-272" style="edgeStyle=orthogonalEdgeStyle;rounded=0;orthogonalLoop=1;jettySize=auto;html=1;exitX=0;exitY=0.313;exitDx=0;exitDy=0;entryX=1;entryY=0.5;entryDx=0;entryDy=0;exitPerimeter=0;startArrow=classic;startFill=1;endArrow=none;endFill=0;" parent="1" edge="1">
          <mxGeometry relative="1" as="geometry">
            <mxPoint x="1500" y="759.5" as="sourcePoint" />
            <mxPoint x="1580" y="759.5" as="targetPoint" />
          </mxGeometry>
        </mxCell>
        <mxCell id="vAtyXtitnbN9AJRjqvqJ-273" value="1 IO OUTPUT" style="text;html=1;resizable=0;points=[];align=center;verticalAlign=middle;labelBackgroundColor=none;fontColor=#EA6B66;" parent="vAtyXtitnbN9AJRjqvqJ-272" vertex="1" connectable="0">
          <mxGeometry x="-0.188" relative="1" as="geometry">
            <mxPoint x="7.5" y="-9.5" as="offset" />
          </mxGeometry>
        </mxCell>
        <mxCell id="vAtyXtitnbN9AJRjqvqJ-329" style="edgeStyle=orthogonalEdgeStyle;rounded=0;orthogonalLoop=1;jettySize=auto;html=1;exitX=1;exitY=0.5;exitDx=0;exitDy=0;entryX=0.5;entryY=0;entryDx=0;entryDy=0;strokeColor=#C73500;fontColor=#EA6B66;fillColor=#fa6800;" parent="1" source="vAtyXtitnbN9AJRjqvqJ-274" target="vAtyXtitnbN9AJRjqvqJ-236" edge="1">
          <mxGeometry relative="1" as="geometry">
            <Array as="points">
              <mxPoint x="1780" y="840" />
              <mxPoint x="1780" y="300" />
              <mxPoint x="420" y="300" />
            </Array>
          </mxGeometry>
        </mxCell>
        <mxCell id="vAtyXtitnbN9AJRjqvqJ-274" value="485 BMS电池充放电管理" style="rounded=0;whiteSpace=wrap;html=1;shadow=0;fillColor=#ffcc99;strokeColor=none;" parent="1" vertex="1">
          <mxGeometry x="1580" y="820" width="160" height="40" as="geometry" />
        </mxCell>
        <mxCell id="vAtyXtitnbN9AJRjqvqJ-275" style="edgeStyle=orthogonalEdgeStyle;rounded=0;orthogonalLoop=1;jettySize=auto;html=1;exitX=0;exitY=0.313;exitDx=0;exitDy=0;entryX=1;entryY=0.5;entryDx=0;entryDy=0;exitPerimeter=0;" parent="1" edge="1">
          <mxGeometry relative="1" as="geometry">
            <mxPoint x="1580.0000000000005" y="839.5" as="sourcePoint" />
            <mxPoint x="1500.0000000000005" y="839.5" as="targetPoint" />
          </mxGeometry>
        </mxCell>
        <mxCell id="vAtyXtitnbN9AJRjqvqJ-276" value="2 IO USART" style="text;html=1;resizable=0;points=[];align=center;verticalAlign=middle;labelBackgroundColor=none;fontColor=#EA6B66;" parent="vAtyXtitnbN9AJRjqvqJ-275" vertex="1" connectable="0">
          <mxGeometry x="-0.188" relative="1" as="geometry">
            <mxPoint x="-2.5" y="-10" as="offset" />
          </mxGeometry>
        </mxCell>
        <mxCell id="vAtyXtitnbN9AJRjqvqJ-280" value="SWD下载接口" style="rounded=0;whiteSpace=wrap;html=1;shadow=0;fillColor=#ffcc99;strokeColor=none;" parent="1" vertex="1">
          <mxGeometry x="1407.5" y="1340" width="110" height="40" as="geometry" />
        </mxCell>
        <mxCell id="vAtyXtitnbN9AJRjqvqJ-281" value="主控复位按键" style="rounded=0;whiteSpace=wrap;html=1;shadow=0;fillColor=#ffcc99;strokeColor=none;" parent="1" vertex="1">
          <mxGeometry x="1172.5" y="1340" width="110" height="40" as="geometry" />
        </mxCell>
        <mxCell id="vAtyXtitnbN9AJRjqvqJ-282" value="Debug无线调试接口" style="rounded=0;whiteSpace=wrap;html=1;shadow=0;fillColor=#ffcc99;strokeColor=none;" parent="1" vertex="1">
          <mxGeometry x="1290" y="1340" width="110" height="40" as="geometry" />
        </mxCell>
        <mxCell id="vAtyXtitnbN9AJRjqvqJ-284" style="edgeStyle=orthogonalEdgeStyle;rounded=0;orthogonalLoop=1;jettySize=auto;html=1;exitX=0.5;exitY=1;exitDx=0;exitDy=0;entryX=0.5;entryY=0;entryDx=0;entryDy=0;strokeColor=#000000;fontColor=#EA6B66;" parent="1" source="vAtyXtitnbN9AJRjqvqJ-283" target="vAtyXtitnbN9AJRjqvqJ-253" edge="1">
          <mxGeometry relative="1" as="geometry" />
        </mxCell>
        <mxCell id="vAtyXtitnbN9AJRjqvqJ-283" value="Wi-Fi复位按键" style="rounded=0;whiteSpace=wrap;html=1;shadow=0;fillColor=#ffcc99;strokeColor=none;" parent="1" vertex="1">
          <mxGeometry x="1560" y="580" width="80" height="40" as="geometry" />
        </mxCell>
        <mxCell id="vAtyXtitnbN9AJRjqvqJ-286" style="edgeStyle=orthogonalEdgeStyle;rounded=0;orthogonalLoop=1;jettySize=auto;html=1;exitX=0.5;exitY=1;exitDx=0;exitDy=0;entryX=0.5;entryY=0;entryDx=0;entryDy=0;strokeColor=#000000;fontColor=#EA6B66;" parent="1" source="vAtyXtitnbN9AJRjqvqJ-285" target="vAtyXtitnbN9AJRjqvqJ-253" edge="1">
          <mxGeometry relative="1" as="geometry" />
        </mxCell>
        <mxCell id="vAtyXtitnbN9AJRjqvqJ-285" value="Wi-Fi下载接口" style="rounded=0;whiteSpace=wrap;html=1;shadow=0;fillColor=#ffcc99;strokeColor=none;" parent="1" vertex="1">
          <mxGeometry x="1680" y="580" width="80" height="40" as="geometry" />
        </mxCell>
        <mxCell id="vAtyXtitnbN9AJRjqvqJ-289" style="edgeStyle=orthogonalEdgeStyle;rounded=0;orthogonalLoop=1;jettySize=auto;html=1;exitX=0.5;exitY=1;exitDx=0;exitDy=0;entryX=1;entryY=0.5;entryDx=0;entryDy=0;strokeColor=#82b366;fontColor=#EA6B66;fillColor=#d5e8d4;" parent="1" source="vAtyXtitnbN9AJRjqvqJ-287" target="vAtyXtitnbN9AJRjqvqJ-261" edge="1">
          <mxGeometry relative="1" as="geometry">
            <Array as="points">
              <mxPoint x="620" y="1460" />
              <mxPoint x="1820" y="1460" />
              <mxPoint x="1820" y="760" />
            </Array>
          </mxGeometry>
        </mxCell>
        <mxCell id="vAtyXtitnbN9AJRjqvqJ-293" value="常开电源供低功耗电路" style="text;html=1;resizable=0;points=[];align=center;verticalAlign=middle;labelBackgroundColor=#ffffff;fontColor=#EA6B66;" parent="vAtyXtitnbN9AJRjqvqJ-289" vertex="1" connectable="0">
          <mxGeometry x="-0.3979" y="-1" relative="1" as="geometry">
            <mxPoint as="offset" />
          </mxGeometry>
        </mxCell>
        <mxCell id="vAtyXtitnbN9AJRjqvqJ-287" value="TPS5430稳压芯片&lt;br&gt;-&amp;gt;稳压3.3V" style="rounded=0;whiteSpace=wrap;html=1;shadow=0;fillColor=#d5e8d4;strokeColor=none;" parent="1" vertex="1">
          <mxGeometry x="540" y="1340" width="160" height="40" as="geometry" />
        </mxCell>
        <mxCell id="vAtyXtitnbN9AJRjqvqJ-302" value="&lt;span style=&quot;text-align: center&quot;&gt;2 IO USART&lt;/span&gt;" style="text;html=1;resizable=0;points=[];autosize=1;align=left;verticalAlign=top;spacingTop=-4;fontColor=#EA6B66;" parent="1" vertex="1">
          <mxGeometry x="1150" y="1281" width="80" height="20" as="geometry" />
        </mxCell>
        <mxCell id="vAtyXtitnbN9AJRjqvqJ-305" style="edgeStyle=orthogonalEdgeStyle;rounded=0;orthogonalLoop=1;jettySize=auto;html=1;exitX=1;exitY=0.5;exitDx=0;exitDy=0;entryX=0;entryY=0.5;entryDx=0;entryDy=0;strokeColor=#9673a6;fontColor=#EA6B66;fillColor=#e1d5e7;" parent="1" source="vAtyXtitnbN9AJRjqvqJ-303" target="vAtyXtitnbN9AJRjqvqJ-246" edge="1">
          <mxGeometry relative="1" as="geometry" />
        </mxCell>
        <mxCell id="vAtyXtitnbN9AJRjqvqJ-319" style="edgeStyle=orthogonalEdgeStyle;rounded=0;orthogonalLoop=1;jettySize=auto;html=1;exitX=0.002;exitY=0.899;exitDx=0;exitDy=0;entryX=0.5;entryY=0;entryDx=0;entryDy=0;strokeColor=#b85450;fontColor=#EA6B66;exitPerimeter=0;fillColor=#f8cecc;" parent="1" source="vAtyXtitnbN9AJRjqvqJ-3" target="vAtyXtitnbN9AJRjqvqJ-303" edge="1">
          <mxGeometry relative="1" as="geometry" />
        </mxCell>
        <mxCell id="vAtyXtitnbN9AJRjqvqJ-324" value="&lt;span style=&quot;&quot;&gt;1 IO OUPUT&lt;/span&gt;" style="text;html=1;resizable=0;points=[];align=center;verticalAlign=middle;labelBackgroundColor=none;fontColor=#EA6B66;" parent="vAtyXtitnbN9AJRjqvqJ-319" vertex="1" connectable="0">
          <mxGeometry x="-0.6469" relative="1" as="geometry">
            <mxPoint x="18.48275862068965" y="-8.5" as="offset" />
          </mxGeometry>
        </mxCell>
        <mxCell id="vAtyXtitnbN9AJRjqvqJ-303" value="LDO" style="rounded=0;whiteSpace=wrap;html=1;shadow=0;fillColor=#ffcc99;strokeColor=none;" parent="1" vertex="1">
          <mxGeometry x="830" y="1220" width="70" height="40" as="geometry" />
        </mxCell>
        <mxCell id="vAtyXtitnbN9AJRjqvqJ-308" value="" style="edgeStyle=orthogonalEdgeStyle;rounded=0;orthogonalLoop=1;jettySize=auto;html=1;strokeColor=#9673a6;fontColor=#EA6B66;fillColor=#e1d5e7;" parent="1" source="vAtyXtitnbN9AJRjqvqJ-306" target="vAtyXtitnbN9AJRjqvqJ-157" edge="1">
          <mxGeometry relative="1" as="geometry" />
        </mxCell>
        <mxCell id="vAtyXtitnbN9AJRjqvqJ-309" style="edgeStyle=orthogonalEdgeStyle;rounded=0;orthogonalLoop=1;jettySize=auto;html=1;exitX=1;exitY=0.5;exitDx=0;exitDy=0;entryX=0;entryY=0.5;entryDx=0;entryDy=0;strokeColor=#9673a6;fontColor=#EA6B66;fillColor=#e1d5e7;" parent="1" source="vAtyXtitnbN9AJRjqvqJ-306" target="vAtyXtitnbN9AJRjqvqJ-158" edge="1">
          <mxGeometry relative="1" as="geometry" />
        </mxCell>
        <mxCell id="vAtyXtitnbN9AJRjqvqJ-321" style="edgeStyle=orthogonalEdgeStyle;rounded=0;orthogonalLoop=1;jettySize=auto;html=1;exitX=0;exitY=0.246;exitDx=0;exitDy=0;entryX=0.5;entryY=0;entryDx=0;entryDy=0;strokeColor=#b85450;fontColor=#EA6B66;fillColor=#f8cecc;exitPerimeter=0;" parent="1" source="vAtyXtitnbN9AJRjqvqJ-3" target="vAtyXtitnbN9AJRjqvqJ-306" edge="1">
          <mxGeometry relative="1" as="geometry">
            <Array as="points">
              <mxPoint x="1040" y="800" />
              <mxPoint x="865" y="800" />
            </Array>
          </mxGeometry>
        </mxCell>
        <mxCell id="vAtyXtitnbN9AJRjqvqJ-322" value="1 IO OUPUT" style="text;html=1;resizable=0;points=[];align=center;verticalAlign=middle;labelBackgroundColor=none;fontColor=#EA6B66;" parent="vAtyXtitnbN9AJRjqvqJ-321" vertex="1" connectable="0">
          <mxGeometry x="-0.16" y="-97" relative="1" as="geometry">
            <mxPoint x="99.5" y="88" as="offset" />
          </mxGeometry>
        </mxCell>
        <mxCell id="vAtyXtitnbN9AJRjqvqJ-306" value="电源开关" style="rounded=0;whiteSpace=wrap;html=1;shadow=0;fillColor=#ffcc99;strokeColor=none;" parent="1" vertex="1">
          <mxGeometry x="830" y="820" width="70" height="40" as="geometry" />
        </mxCell>
        <mxCell id="vAtyXtitnbN9AJRjqvqJ-320" style="edgeStyle=orthogonalEdgeStyle;rounded=0;orthogonalLoop=1;jettySize=auto;html=1;entryX=0.5;entryY=0;entryDx=0;entryDy=0;strokeColor=#b85450;fontColor=#EA6B66;fillColor=#f8cecc;" parent="1" target="vAtyXtitnbN9AJRjqvqJ-312" edge="1">
          <mxGeometry relative="1" as="geometry">
            <mxPoint x="1180" y="960" as="sourcePoint" />
            <Array as="points">
              <mxPoint x="1180" y="960" />
              <mxPoint x="865" y="960" />
            </Array>
          </mxGeometry>
        </mxCell>
        <mxCell id="vAtyXtitnbN9AJRjqvqJ-323" value="&lt;span style=&quot;&quot;&gt;1 IO OUPUT&lt;/span&gt;" style="text;html=1;resizable=0;points=[];align=center;verticalAlign=middle;labelBackgroundColor=none;fontColor=#EA6B66;" parent="vAtyXtitnbN9AJRjqvqJ-320" vertex="1" connectable="0">
          <mxGeometry x="-0.6975" y="-2" relative="1" as="geometry">
            <mxPoint x="10.896551724137801" y="-8" as="offset" />
          </mxGeometry>
        </mxCell>
        <mxCell id="vAtyXtitnbN9AJRjqvqJ-312" value="电源开关" style="rounded=0;whiteSpace=wrap;html=1;shadow=0;fillColor=#ffcc99;strokeColor=none;" parent="1" vertex="1">
          <mxGeometry x="830" y="980" width="70" height="40" as="geometry" />
        </mxCell>
        <mxCell id="NJfnRs9i10rJ8kWKy58w-8" style="edgeStyle=orthogonalEdgeStyle;rounded=0;orthogonalLoop=1;jettySize=auto;html=1;entryX=1;entryY=0.5;entryDx=0;entryDy=0;fillColor=#e1d5e7;strokeColor=#9673a6;" parent="1" target="NJfnRs9i10rJ8kWKy58w-1" edge="1">
          <mxGeometry relative="1" as="geometry">
            <mxPoint x="770" y="939" as="sourcePoint" />
            <Array as="points">
              <mxPoint x="770" y="1440" />
              <mxPoint x="1800" y="1440" />
              <mxPoint x="1800" y="910" />
            </Array>
          </mxGeometry>
        </mxCell>
        <mxCell id="NJfnRs9i10rJ8kWKy58w-9" value="5V RGB供电" style="text;html=1;resizable=0;points=[];align=center;verticalAlign=middle;labelBackgroundColor=#ffffff;" parent="NJfnRs9i10rJ8kWKy58w-8" vertex="1" connectable="0">
          <mxGeometry x="-0.1595" relative="1" as="geometry">
            <mxPoint as="offset" />
          </mxGeometry>
        </mxCell>
        <mxCell id="NJfnRs9i10rJ8kWKy58w-1" value="TM1812 RGB三色LED灯光" style="rounded=0;whiteSpace=wrap;html=1;shadow=0;fillColor=#ffcc99;strokeColor=none;" parent="1" vertex="1">
          <mxGeometry x="1580" y="890" width="160" height="40" as="geometry" />
        </mxCell>
        <mxCell id="NJfnRs9i10rJ8kWKy58w-3" value="2路LED状态灯" style="rounded=0;whiteSpace=wrap;html=1;shadow=0;fillColor=#ffcc99;strokeColor=none;" parent="1" vertex="1">
          <mxGeometry x="1527.5" y="1340" width="110" height="40" as="geometry" />
        </mxCell>
        <mxCell id="NJfnRs9i10rJ8kWKy58w-5" value="2 IO OUTPUT" style="text;html=1;resizable=0;points=[];align=center;verticalAlign=middle;labelBackgroundColor=none;fontColor=#EA6B66;" parent="1" vertex="1" connectable="0">
          <mxGeometry x="1470" y="1281.1666666666667" as="geometry">
            <mxPoint x="20" y="17.5" as="offset" />
          </mxGeometry>
        </mxCell>
        <mxCell id="NJfnRs9i10rJ8kWKy58w-6" style="edgeStyle=orthogonalEdgeStyle;rounded=0;orthogonalLoop=1;jettySize=auto;html=1;exitX=0;exitY=0.313;exitDx=0;exitDy=0;entryX=1;entryY=0.5;entryDx=0;entryDy=0;exitPerimeter=0;" parent="1" edge="1">
          <mxGeometry relative="1" as="geometry">
            <mxPoint x="1500.0000000000005" y="910" as="sourcePoint" />
            <mxPoint x="1580.0000000000005" y="910" as="targetPoint" />
          </mxGeometry>
        </mxCell>
        <mxCell id="NJfnRs9i10rJ8kWKy58w-7" value="1 IO OUTPUT" style="text;html=1;resizable=0;points=[];align=center;verticalAlign=middle;labelBackgroundColor=none;fontColor=#EA6B66;" parent="NJfnRs9i10rJ8kWKy58w-6" vertex="1" connectable="0">
          <mxGeometry x="-0.188" relative="1" as="geometry">
            <mxPoint x="7.5" y="-10" as="offset" />
          </mxGeometry>
        </mxCell>
        <mxCell id="NJfnRs9i10rJ8kWKy58w-10" value="TLP291" style="text;html=1;" parent="1" vertex="1">
          <mxGeometry x="1195" y="270" width="70" height="30" as="geometry" />
        </mxCell>
        <mxCell id="NJfnRs9i10rJ8kWKy58w-11" value="AOD409 或AOD444&lt;br&gt;60V 20A 12A" style="text;html=1;" parent="1" vertex="1">
          <mxGeometry x="740" y="260" width="70" height="30" as="geometry" />
        </mxCell>
        <mxCell id="NJfnRs9i10rJ8kWKy58w-16" value="AO3401A&lt;br&gt;30V 4A" style="text;html=1;" parent="1" vertex="1">
          <mxGeometry x="785" y="860" width="60" height="23" as="geometry" />
        </mxCell>
        <mxCell id="NJfnRs9i10rJ8kWKy58w-17" value="AO3401A&lt;br&gt;30V 4A" style="text;html=1;" parent="1" vertex="1">
          <mxGeometry x="825" y="1030" width="55" height="20" as="geometry" />
        </mxCell>
        <mxCell id="NJfnRs9i10rJ8kWKy58w-18" value="XC6219B502MR-G" style="text;html=1;" parent="1" vertex="1">
          <mxGeometry x="802" y="1177" width="108" height="30" as="geometry" />
        </mxCell>
        <mxCell id="NJfnRs9i10rJ8kWKy58w-19" value="两种LED灯灯条，分别放在四条灯带上" style="text;html=1;" parent="1" vertex="1">
          <mxGeometry x="1745.0907759232955" y="880" width="130" height="30" as="geometry" />
        </mxCell>
        <mxCell id="Vokmlb52FuFqx945MP22-1" value="蜂鸣器" style="rounded=0;whiteSpace=wrap;html=1;shadow=0;fillColor=#ffcc99;strokeColor=none;" parent="1" vertex="1">
          <mxGeometry x="1647.5" y="1340" width="110" height="40" as="geometry" />
        </mxCell>
        <mxCell id="aC8j-7fB3LMg9DR5qV9U-1" value="遥控接口" style="rounded=0;whiteSpace=wrap;html=1;shadow=0;fillColor=#ffcc99;strokeColor=none;" parent="1" vertex="1">
          <mxGeometry x="1050" y="1340" width="110" height="40" as="geometry" />
        </mxCell>
        <mxCell id="RAqQIVPVtLaMZtm-HkEr-1" style="edgeStyle=orthogonalEdgeStyle;rounded=0;orthogonalLoop=1;jettySize=auto;html=1;exitX=0;exitY=0.313;exitDx=0;exitDy=0;entryX=1;entryY=0.5;entryDx=0;entryDy=0;exitPerimeter=0;endArrow=none;endFill=0;startArrow=classic;startFill=1;" edge="1" parent="1">
          <mxGeometry relative="1" as="geometry">
            <mxPoint x="1100" y="1259.72" as="sourcePoint" />
            <mxPoint x="1180" y="1259.72" as="targetPoint" />
          </mxGeometry>
        </mxCell>
        <mxCell id="RAqQIVPVtLaMZtm-HkEr-2" value="1&amp;nbsp;IO OUT" style="text;html=1;resizable=0;points=[];align=center;verticalAlign=middle;labelBackgroundColor=none;fontColor=#EA6B66;" vertex="1" connectable="0" parent="RAqQIVPVtLaMZtm-HkEr-1">
          <mxGeometry x="-0.188" relative="1" as="geometry">
            <mxPoint x="7.586206896551722" y="-10" as="offset" />
          </mxGeometry>
        </mxCell>
        <mxCell id="RAqQIVPVtLaMZtm-HkEr-3" style="edgeStyle=orthogonalEdgeStyle;rounded=0;orthogonalLoop=1;jettySize=auto;html=1;exitX=0;exitY=0.313;exitDx=0;exitDy=0;entryX=1;entryY=0.5;entryDx=0;entryDy=0;exitPerimeter=0;startArrow=classic;startFill=1;" edge="1" parent="1">
          <mxGeometry relative="1" as="geometry">
            <mxPoint x="1580.0000000000005" y="780" as="sourcePoint" />
            <mxPoint x="1500.0000000000005" y="780" as="targetPoint" />
          </mxGeometry>
        </mxCell>
        <mxCell id="RAqQIVPVtLaMZtm-HkEr-4" value="2 IO USART" style="text;html=1;resizable=0;points=[];align=center;verticalAlign=middle;labelBackgroundColor=none;fontColor=#EA6B66;" vertex="1" connectable="0" parent="RAqQIVPVtLaMZtm-HkEr-3">
          <mxGeometry x="-0.188" relative="1" as="geometry">
            <mxPoint x="-2.5" y="-10" as="offset" />
          </mxGeometry>
        </mxCell>
      </root>
    </mxGraphModel>
  </diagram>
</mxfile>
